# File created by Blade
# Date/Time:  Wed Jan 28 16:58:26 2015
#---------------------------------------------------------
:version 1.10
:name HOM
:units
  mass 1.0
  length 1.000000
  angle deg
:documentation
     Acclaim Skeleton File
:root
   axis xyz
   order TX TY TZ RX RY RZ
   position 0.000000 0.000000 0.000000
   orientation 0 0 0
:bonedata
   begin
      id 1
      name Spine_dum
      direction 0.000000 1.000000 0.000000
      length 9.621153
      axis 0.0 0.0 0.0 xyz
   end
   begin
      id 2
      name LeftUpLeg_dum
      direction 1.000000 0.000000 0.000000
      length 2.700595
      axis 0.0 0.0 0.0 xyz
   end
   begin
      id 3
      name RightUpLeg_dum
      direction -1.000000 0.000000 0.000000
      length 2.700595
      axis 0.0 0.0 0.0 xyz
   end
   begin
      id 4
      name Spine
      direction 0.000000 1.000000 0.000000
      length 0.000000
      axis 0.0 0.0 0.0 xyz
      dof rx ry rz
   end
   begin
      id 5
      name Spine_dum1
      direction 0.000000 1.000000 0.000000
      length 12.771951
      axis 0.0 0.0 0.0 xyz
   end
   begin
      id 6
      name Spine_dum2
      direction 0.000000 1.000000 0.000000
      length 7.400569
      axis 0.0 0.0 0.0 xyz
   end
   begin
      id 7
      name Spine_dum3
      direction 0.000000 1.000000 0.000000
      length 7.400569
      axis 0.0 0.0 0.0 xyz
   end
   begin
      id 8
      name Head
      direction 0.000000 1.000000 0.000000
      length 4.527550
      axis 0.0 0.0 0.0 xyz
      dof rx ry rz
   end
   begin
      id 9
      name LeftShoulder
      direction 1.000000 0.000000 0.000000
      length 8.349299
      axis 0.0 0.0 -90.0 xyz
      dof rx ry rz
   end
   begin
      id 10
      name LeftArm
      direction 1.000000 0.000000 0.000000
      length 11.334839
      axis 0.0 0.0 -90.0 xyz
      dof rx ry rz
   end
   begin
      id 11
      name LeftForeArm
      direction 1.000000 0.000000 0.000000
      length 9.694182
      axis 0.0 0.0 -90.0 xyz
      dof ry rz rx
   end
   begin
      id 12
      name LeftHand
      direction 0.000000 0.000000 0.000000
      length 0.000000
      axis 0.0 0.0 -90.0 xyz
      dof rx ry rz
   end
   begin
      id 13
      name LeftHand_dum1
      direction 0.000000 0.000000 0.000000
      length 0.000000
      axis 0.0 0.0 -90.0 xyz
   end
   begin
      id 14
      name LeftHand_dum2
      direction 1.000000 0.000000 0.000000
      length 3.937000
      axis 0.0 0.0 -90.0 xyz
   end
   begin
      id 15
      name LeftHandThumb1
      direction 0.000000 0.000000 1.000000
      length 3.937000
      axis 0.0 0.0 -90.0 xyz
      dof rx rz ry
   end
   begin
      id 16
      name RightShoulder
      direction -1.000000 0.000000 0.000000
      length 8.349299
      axis 0.0 0.0 90.0 xyz
      dof rx ry rz
   end
   begin
      id 17
      name RightArm
      direction -1.000000 0.000000 0.000000
      length 11.334839
      axis 0.0 0.0 90.0 xyz
      dof rx ry rz
   end
   begin
      id 18
      name RightForeArm
      direction -1.000000 0.000000 0.000000
      length 9.694182
      axis 0.0 0.0 90.0 xyz
      dof ry rz rx
   end
   begin
      id 19
      name RightHand
      direction 0.000000 0.000000 0.000000
      length 0.000000
      axis 0.0 0.0 90.0 xyz
      dof rx ry rz
   end
   begin
      id 20
      name RightHand_dum1
      direction 0.000000 0.000000 0.000000
      length 0.000000
      axis 0.0 0.0 90.0 xyz
   end
   begin
      id 21
      name RightHand_dum2
      direction -1.000000 0.000000 0.000000
      length 3.937000
      axis 0.0 0.0 90.0 xyz
   end
   begin
      id 22
      name RightHandThumb1
      direction 0.000000 0.000000 1.000000
      length 3.937000
      axis 0.0 0.0 90.0 xyz
      dof rx rz ry
   end
   begin
      id 23
      name LeftUpLeg
      direction 0.000000 -1.000000 0.000000
      length 16.757176
      axis 0.0 0.0 0.0 xyz
      dof rx ry rz
   end
   begin
      id 24
      name LeftLeg
      direction 0.000000 -1.000000 0.000000
      length 16.759153
      axis 0.0 0.0 0.0 xyz
      dof rx ry rz
   end
   begin
      id 25
      name LeftFoot
      direction 0.000000 -0.258819 0.965926
      length 5.841289
      axis 15.0 0.0 0.0 xyz
      dof rx ry rz
   end
   begin
      id 26
      name LeftToeBase
      direction 0.000000 0.000000 1.000000
      length 2.952750
      axis 0.0 0.0 0.0 xyz
      dof rx ry rz
   end
   begin
      id 27
      name RightUpLeg
      direction 0.000000 -1.000000 0.000000
      length 16.757176
      axis 0.0 0.0 0.0 xyz
      dof rx ry rz
   end
   begin
      id 28
      name RightLeg
      direction 0.000000 -1.000000 0.000000
      length 16.759153
      axis 0.0 0.0 0.0 xyz
      dof rx ry rz
   end
   begin
      id 29
      name RightFoot
      direction 0.000000 -0.258819 0.965926
      length 5.841289
      axis 15.0 0.0 0.0 xyz
      dof rx ry rz
   end
   begin
      id 30
      name RightToeBase
      direction 0.000000 0.000000 1.000000
      length 2.952750
      axis 0.0 0.0 0.0 xyz
      dof rx ry rz
   end
:hierarchy
   begin
      root Spine_dum LeftUpLeg_dum RightUpLeg_dum
      Spine_dum Spine
      LeftUpLeg_dum LeftUpLeg
      RightUpLeg_dum RightUpLeg
      Spine Spine_dum1 Spine_dum2 Spine_dum3
      Spine_dum1 Head
      Spine_dum2 LeftShoulder
      Spine_dum3 RightShoulder
      LeftShoulder LeftArm
      LeftArm LeftForeArm
      LeftForeArm LeftHand
      LeftHand LeftHand_dum1 LeftHand_dum2
      LeftHand_dum1 LeftHandThumb1
      RightShoulder RightArm
      RightArm RightForeArm
      RightForeArm RightHand
      RightHand RightHand_dum1 RightHand_dum2
      RightHand_dum1 RightHandThumb1
      LeftUpLeg LeftLeg
      LeftLeg LeftFoot
      LeftFoot LeftToeBase
      RightUpLeg RightLeg
      RightLeg RightFoot
      RightFoot RightToeBase
   end

# File created by Blade
# Date/Time:  Wed Jan 28 16:58:32 2015
# Frame Rate: 120.000 fps
#------------------------------------------------------
:FULLY-SPECIFIED
:DEGREES
2012
root 9.711938 36.071154 -18.390346 212.108058 27.603922 -163.187009
Spine 20.202197 7.187328 -1.780194
Head 40.552938 29.498567 21.851547
LeftShoulder -10.268402 -1.910501 29.430350
LeftArm 43.713948 -55.969961 -78.338371
LeftForeArm -22.765322 -0.000000 109.460513
LeftHand -13.157158 -0.000000 38.279795
LeftHandThumb1 -26.253704 0.000000 33.147579
RightShoulder -17.852772 -7.724923 -2.633698
RightArm 17.694454 -25.485493 70.345813
RightForeArm -8.703765 -0.000000 43.678985
RightHand -14.790355 0.000000 -1.275827
RightHandThumb1 -24.326973 -0.000000 -32.862282
LeftUpLeg -29.385942 19.303475 -1.946119
LeftLeg 9.192820 -0.000000 -0.000000
LeftFoot -16.628924 24.382028 -7.389554
LeftToeBase 12.135117 -0.000000 -0.000000
RightUpLeg -10.868568 -1.411440 8.562276
RightLeg 84.113807 -0.000000 -0.000000
RightFoot 9.091483 -13.353391 24.855489
RightToeBase -5.496691 -0.000000 0.000000
2013
root 9.682258 36.071918 -18.353873 212.231736 27.659525 -163.132699
Spine 20.223838 7.114968 -1.788068
Head 40.583540 29.526023 21.785722
LeftShoulder -10.273924 -2.062470 29.428210
LeftArm 43.706649 -56.241881 -78.368612
LeftForeArm -22.761432 0.000000 109.474231
LeftHand -13.294278 -0.000000 38.283255
LeftHandThumb1 -26.253704 0.000000 33.147579
RightShoulder -17.841273 -7.693465 -2.653494
RightArm 17.544389 -25.466095 70.370078
RightForeArm -8.598425 -0.000000 43.408726
RightHand -14.662302 0.000000 -1.164715
RightHandThumb1 -24.326973 -0.000000 -32.862282
LeftUpLeg -29.640749 19.599181 -2.117448
LeftLeg 9.260707 -0.000000 -0.000000
LeftFoot -16.668891 24.118136 -7.440355
LeftToeBase 12.258443 -0.000000 -0.000000
RightUpLeg -12.128090 -0.218572 8.689846
RightLeg 84.923396 -0.000000 -0.000000
RightFoot 8.364252 -13.845536 24.534009
RightToeBase -5.731663 -0.000000 0.000000
2014
root 9.653151 36.071302 -18.314106 212.370111 27.718461 -163.067652
Spine 20.257601 7.035492 -1.795075
Head 40.571249 29.633967 21.723020
LeftShoulder -10.315754 -2.058452 29.404938
LeftArm 43.948672 -56.539668 -78.603948
LeftForeArm -22.779219 0.000000 109.516587
LeftHand -13.395770 -0.000000 38.159734
LeftHandThumb1 -26.253704 0.000000 33.147579
RightShoulder -17.844103 -7.726553 -2.636133
RightArm 17.499113 -25.510602 70.322067
RightForeArm -8.610251 -0.000000 43.198568
RightHand -14.707181 0.000000 -1.388147
RightHandThumb1 -24.326973 -0.000000 -32.862282
LeftUpLeg -29.837730 19.738405 -2.191687
LeftLeg 9.249985 -0.000000 -0.000000
LeftFoot -16.787789 23.969442 -7.630256
LeftToeBase 12.493157 -0.000000 -0.000000
RightUpLeg -13.411109 0.890394 8.737720
RightLeg 85.821568 -0.000000 -0.000000
RightFoot 7.772911 -14.252644 24.036292
RightToeBase -6.713923 -0.000000 0.000000
2015
root 9.615665 36.069573 -18.275757 212.521682 27.871705 -162.964855
Spine 20.322721 7.046026 -1.798357
Head 40.521936 29.725619 21.608972
LeftShoulder -10.354204 -2.151028 29.401879
LeftArm 44.032051 -56.848371 -78.776602
LeftForeArm -22.845309 0.000000 109.611408
LeftHand -13.504839 -0.000000 37.980820
LeftHandThumb1 -26.253704 0.000000 33.147579
RightShoulder -17.869973 -7.861239 -2.587523
RightArm 17.643270 -25.517281 70.149629
RightForeArm -8.657766 -0.000000 42.993770
RightHand -14.711640 -0.000000 -1.362370
RightHandThumb1 -24.326973 -0.000000 -32.862282
LeftUpLeg -30.030560 19.961941 -2.304440
LeftLeg 9.229021 -0.000000 -0.000000
LeftFoot -16.803700 23.884075 -7.645178
LeftToeBase 12.583763 -0.000000 -0.000000
RightUpLeg -14.708574 2.077189 8.705871
RightLeg 86.812403 -0.000000 -0.000000
RightFoot 7.081112 -14.661405 23.493660
RightToeBase -6.414239 -0.000000 0.000000
2016
root 9.579615 36.068291 -18.228438 212.734549 28.020445 -162.819742
Spine 20.360032 7.090922 -1.773780
Head 40.404388 29.807881 21.512651
LeftShoulder -10.366138 -2.252810 29.448550
LeftArm 44.014376 -57.208535 -78.917068
LeftForeArm -22.914262 -0.000000 109.753616
LeftHand -13.632807 0.000000 37.789499
LeftHandThumb1 -26.253704 0.000000 33.147579
RightShoulder -17.884720 -7.789455 -2.602317
RightArm 17.534349 -25.574373 70.070510
RightForeArm -8.529132 -0.000000 42.863073
RightHand -14.758607 0.000000 -1.329273
RightHandThumb1 -24.326973 -0.000000 -32.862282
LeftUpLeg -30.394200 20.326464 -2.451429
LeftLeg 9.393562 -0.000000 -0.000000
LeftFoot -16.807148 23.641863 -7.588744
LeftToeBase 12.596985 -0.000000 -0.000000
RightUpLeg -16.130162 3.136061 8.614489
RightLeg 87.948145 -0.000000 -0.000000
RightFoot 6.490625 -15.122909 22.992634
RightToeBase -6.240826 -0.000000 0.000000
2017
root 9.540978 36.067281 -18.178799 212.969254 28.210180 -162.623800
Spine 20.418095 7.141067 -1.714243
Head 40.312894 29.947955 21.365128
LeftShoulder -10.425382 -2.207116 29.459730
LeftArm 44.218716 -57.574067 -79.271104
LeftForeArm -22.964885 0.000000 109.899831
LeftHand -13.683947 0.000000 37.670622
LeftHandThumb1 -26.253704 0.000000 33.147579
RightShoulder -17.890816 -7.835237 -2.611022
RightArm 17.597710 -25.557465 69.920255
RightForeArm -8.543386 -0.000000 42.759476
RightHand -14.657002 -0.000000 -1.050051
RightHandThumb1 -24.326973 -0.000000 -32.862282
LeftUpLeg -30.728244 20.634624 -2.543621
LeftLeg 9.519969 -0.000000 -0.000000
LeftFoot -16.795114 23.572455 -7.498658
LeftToeBase 12.593926 -0.000000 -0.000000
RightUpLeg -17.547380 4.220468 8.513150
RightLeg 89.148408 -0.000000 -0.000000
RightFoot 5.936515 -15.452117 22.203088
RightToeBase -6.042289 -0.000000 0.000000
2018
root 9.503720 36.065307 -18.126908 213.209054 28.371533 -162.424304
Spine 20.476819 7.135940 -1.653722
Head 40.215850 30.102724 21.255594
LeftShoulder -10.508299 -2.211333 29.508567
LeftArm 44.235783 -57.948410 -79.492942
LeftForeArm -23.109074 -0.000000 110.075615
LeftHand -13.661521 -0.000000 37.580141
LeftHandThumb1 -26.253704 0.000000 33.147579
RightShoulder -17.833093 -7.869685 -2.628487
RightArm 17.625037 -25.519312 69.788733
RightForeArm -8.521247 -0.000000 42.680773
RightHand -14.668433 0.000000 -0.952587
RightHandThumb1 -24.326973 -0.000000 -32.862282
LeftUpLeg -31.078906 20.879333 -2.599884
LeftLeg 9.673275 -0.000000 -0.000000
LeftFoot -16.802770 23.554362 -7.392522
LeftToeBase 12.628013 -0.000000 -0.000000
RightUpLeg -18.979648 5.236534 8.425182
RightLeg 90.399416 -0.000000 -0.000000
RightFoot 5.532642 -15.811234 21.180299
RightToeBase -6.012510 -0.000000 0.000000
2019
root 9.466001 36.062727 -18.071862 213.475192 28.522161 -162.210436
Spine 20.511052 7.167179 -1.562145
Head 40.152875 30.231181 21.175231
LeftShoulder -10.572865 -2.169762 29.539977
LeftArm 44.351392 -58.287910 -79.775000
LeftForeArm -23.180409 -0.000000 110.251223
LeftHand -13.626343 -0.000000 37.615228
LeftHandThumb1 -26.253704 0.000000 33.147579
RightShoulder -17.822979 -7.883849 -2.643030
RightArm 17.637153 -25.513992 69.641910
RightForeArm -8.557859 -0.000000 42.659076
RightHand -14.772042 0.000000 -0.883867
RightHandThumb1 -24.326973 -0.000000 -32.862282
LeftUpLeg -31.477081 21.107432 -2.643905
LeftLeg 9.873020 -0.000000 -0.000000
LeftFoot -16.825785 23.538148 -7.293108
LeftToeBase 12.662109 -0.000000 -0.000000
RightUpLeg -20.448327 6.203842 8.310692
RightLeg 91.729219 -0.000000 -0.000000
RightFoot 5.022025 -16.279778 20.611276
RightToeBase -6.196802 -0.000000 0.000000
